<svg width="176" height="61" viewBox="0 0 176 61" fill="none" xmlns="http://www.w3.org/2000/svg">
<g clip-path="url(#clip0)">
<path d="M7.84185 24.0648V21.3571H35.8581V13.1041H8.00789V10.0683C8.00789 9.15303 8.74 8.40553 9.65324 8.40553H35.8657V0H7.72109C3.45675 0 0 3.4934 0 7.80296V27.7184C0 31.0898 2.702 33.8128 6.03045 33.8128H37.3676V25.7276H9.4872C8.5815 25.7276 7.84185 24.9801 7.84185 24.0648Z" fill="#002378"/>
<path d="M75.9655 0H43.2999V33.8128H75.973C80.4789 33.8128 84.1243 30.1211 84.1243 25.5751V8.23772C84.1243 3.69172 80.4713 0 75.9655 0ZM76.1164 20.6019C76.1164 22.9436 74.2371 24.8352 71.9276 24.8352H51.9418V8.73351H71.9276C74.2447 8.73351 76.1164 10.6328 76.1164 12.9668V20.6019Z" fill="#002378"/>
<path d="M133.138 0H121.288L108.639 12.6235H98.7137V0H90.2303V33.8128H98.5552V21.0367H109.122L121.447 33.8128H133.779L116.805 16.9102L133.138 0Z" fill="#002378"/>
<path d="M150.097 25.7276C148.097 25.7276 146.474 24.0877 146.474 22.0664V21.3571L146.633 13.1041V12.0744C146.633 10.0531 148.255 8.41316 150.256 8.41316H174.491V0H146.346C142.082 0 138.625 3.4934 138.625 7.80296V27.7184C138.625 31.0898 141.327 33.8128 144.655 33.8128H175.992V25.7276H150.097Z" fill="#002378"/>
</g>
<path d="M3.69276 47.9098V50.5618H6.81276V51.7708H3.69276V54.5398H7.20276V55.7488H2.21076V46.7008H7.20276V47.9098H3.69276ZM15.5151 48.5858V55.7488H14.0331V54.9038C13.7991 55.1984 13.4915 55.4324 13.1101 55.6058C12.7375 55.7704 12.3388 55.8528 11.9141 55.8528C11.3508 55.8528 10.8438 55.7358 10.3931 55.5018C9.95114 55.2678 9.60014 54.9211 9.34014 54.4618C9.08881 54.0024 8.96314 53.4478 8.96314 52.7978V48.5858H10.4321V52.5768C10.4321 53.2181 10.5925 53.7121 10.9131 54.0588C11.2338 54.3968 11.6715 54.5658 12.2261 54.5658C12.7808 54.5658 13.2185 54.3968 13.5391 54.0588C13.8685 53.7121 14.0331 53.2181 14.0331 52.5768V48.5858H15.5151ZM18.9525 49.6258C19.1692 49.2618 19.4552 48.9801 19.8105 48.7808C20.1745 48.5728 20.6035 48.4688 21.0975 48.4688V50.0028H20.7205C20.1399 50.0028 19.6979 50.1501 19.3945 50.4448C19.0999 50.7394 18.9525 51.2508 18.9525 51.9788V55.7488H17.4705V48.5858H18.9525V49.6258ZM25.5668 55.8658C24.8908 55.8658 24.2798 55.7141 23.7338 55.4108C23.1878 55.0988 22.7588 54.6654 22.4468 54.1108C22.1348 53.5474 21.9788 52.8974 21.9788 52.1608C21.9788 51.4328 22.1391 50.7871 22.4598 50.2238C22.7804 49.6604 23.2181 49.2271 23.7728 48.9238C24.3274 48.6204 24.9471 48.4688 25.6318 48.4688C26.3164 48.4688 26.9361 48.6204 27.4908 48.9238C28.0454 49.2271 28.4831 49.6604 28.8038 50.2238C29.1244 50.7871 29.2848 51.4328 29.2848 52.1608C29.2848 52.8888 29.1201 53.5344 28.7908 54.0978C28.4614 54.6611 28.0108 55.0988 27.4388 55.4108C26.8754 55.7141 26.2514 55.8658 25.5668 55.8658ZM25.5668 54.5788C25.9481 54.5788 26.3034 54.4878 26.6328 54.3058C26.9708 54.1238 27.2438 53.8508 27.4518 53.4868C27.6598 53.1228 27.7638 52.6808 27.7638 52.1608C27.7638 51.6408 27.6641 51.2031 27.4648 50.8478C27.2654 50.4838 27.0011 50.2108 26.6718 50.0288C26.3424 49.8468 25.9871 49.7558 25.6058 49.7558C25.2244 49.7558 24.8691 49.8468 24.5398 50.0288C24.2191 50.2108 23.9634 50.4838 23.7728 50.8478C23.5821 51.2031 23.4868 51.6408 23.4868 52.1608C23.4868 52.9321 23.6818 53.5301 24.0718 53.9548C24.4704 54.3708 24.9688 54.5788 25.5668 54.5788ZM32.2318 49.6388C32.4832 49.3094 32.8255 49.0321 33.2588 48.8068C33.6922 48.5814 34.1818 48.4688 34.7278 48.4688C35.3518 48.4688 35.9195 48.6248 36.4308 48.9368C36.9508 49.2401 37.3582 49.6691 37.6528 50.2238C37.9475 50.7784 38.0948 51.4154 38.0948 52.1348C38.0948 52.8541 37.9475 53.4998 37.6528 54.0718C37.3582 54.6351 36.9508 55.0771 36.4308 55.3978C35.9195 55.7098 35.3518 55.8658 34.7278 55.8658C34.1818 55.8658 33.6965 55.7574 33.2718 55.5408C32.8472 55.3154 32.5005 55.0381 32.2318 54.7088V59.1548H30.7498V48.5858H32.2318V49.6388ZM36.5868 52.1348C36.5868 51.6408 36.4828 51.2161 36.2748 50.8608C36.0755 50.4968 35.8068 50.2238 35.4688 50.0418C35.1395 49.8511 34.7842 49.7558 34.4028 49.7558C34.0302 49.7558 33.6748 49.8511 33.3368 50.0418C33.0075 50.2324 32.7388 50.5098 32.5308 50.8738C32.3315 51.2378 32.2318 51.6668 32.2318 52.1608C32.2318 52.6548 32.3315 53.0881 32.5308 53.4608C32.7388 53.8248 33.0075 54.1021 33.3368 54.2928C33.6748 54.4834 34.0302 54.5788 34.4028 54.5788C34.7842 54.5788 35.1395 54.4834 35.4688 54.2928C35.8068 54.0934 36.0755 53.8074 36.2748 53.4348C36.4828 53.0621 36.5868 52.6288 36.5868 52.1348ZM46.1254 51.9918C46.1254 52.2604 46.108 52.5031 46.0734 52.7198H40.6004C40.6437 53.2918 40.856 53.7511 41.2374 54.0978C41.6187 54.4444 42.0867 54.6178 42.6414 54.6178C43.4387 54.6178 44.002 54.2841 44.3314 53.6168H45.9304C45.7137 54.2754 45.3194 54.8171 44.7474 55.2418C44.184 55.6578 43.482 55.8658 42.6414 55.8658C41.9567 55.8658 41.3414 55.7141 40.7954 55.4108C40.258 55.0988 39.8334 54.6654 39.5214 54.1108C39.218 53.5474 39.0664 52.8974 39.0664 52.1608C39.0664 51.4241 39.2137 50.7784 39.5084 50.2238C39.8117 49.6604 40.232 49.2271 40.7694 48.9238C41.3154 48.6204 41.9394 48.4688 42.6414 48.4688C43.3174 48.4688 43.9197 48.6161 44.4484 48.9108C44.977 49.2054 45.3887 49.6214 45.6834 50.1588C45.978 50.6874 46.1254 51.2984 46.1254 51.9918ZM44.5784 51.5238C44.5697 50.9778 44.3747 50.5401 43.9934 50.2108C43.612 49.8814 43.1397 49.7168 42.5764 49.7168C42.065 49.7168 41.6274 49.8814 41.2634 50.2108C40.8994 50.5314 40.6827 50.9691 40.6134 51.5238H44.5784ZM47.0898 52.1348C47.0898 51.4154 47.2371 50.7784 47.5318 50.2238C47.8351 49.6691 48.2425 49.2401 48.7538 48.9368C49.2738 48.6248 49.8458 48.4688 50.4698 48.4688C51.0331 48.4688 51.5228 48.5814 51.9388 48.8068C52.3635 49.0234 52.7015 49.2964 52.9528 49.6258V48.5858H54.4478V55.7488H52.9528V54.6828C52.7015 55.0208 52.3591 55.3024 51.9258 55.5278C51.4925 55.7531 50.9985 55.8658 50.4438 55.8658C49.8285 55.8658 49.2651 55.7098 48.7538 55.3978C48.2425 55.0771 47.8351 54.6351 47.5318 54.0718C47.2371 53.4998 47.0898 52.8541 47.0898 52.1348ZM52.9528 52.1608C52.9528 51.6668 52.8488 51.2378 52.6408 50.8738C52.4415 50.5098 52.1771 50.2324 51.8478 50.0418C51.5185 49.8511 51.1631 49.7558 50.7818 49.7558C50.4005 49.7558 50.0451 49.8511 49.7158 50.0418C49.3865 50.2238 49.1178 50.4968 48.9098 50.8608C48.7105 51.2161 48.6108 51.6408 48.6108 52.1348C48.6108 52.6288 48.7105 53.0621 48.9098 53.4348C49.1178 53.8074 49.3865 54.0934 49.7158 54.2928C50.0538 54.4834 50.4091 54.5788 50.7818 54.5788C51.1631 54.5788 51.5185 54.4834 51.8478 54.2928C52.1771 54.1021 52.4415 53.8248 52.6408 53.4608C52.8488 53.0881 52.9528 52.6548 52.9528 52.1608ZM60.0083 48.4688C60.5717 48.4688 61.0743 48.5858 61.5163 48.8198C61.967 49.0538 62.318 49.4004 62.5693 49.8598C62.8207 50.3191 62.9464 50.8738 62.9464 51.5238V55.7488H61.4773V51.7448C61.4773 51.1034 61.317 50.6138 60.9963 50.2758C60.6757 49.9291 60.238 49.7558 59.6833 49.7558C59.1287 49.7558 58.6867 49.9291 58.3573 50.2758C58.0367 50.6138 57.8763 51.1034 57.8763 51.7448V55.7488H56.3943V48.5858H57.8763V49.4048C58.119 49.1101 58.4267 48.8804 58.7993 48.7158C59.1807 48.5511 59.5837 48.4688 60.0083 48.4688ZM71.1647 46.7138C72.1267 46.7138 72.9674 46.9001 73.6867 47.2728C74.4147 47.6368 74.9737 48.1654 75.3637 48.8588C75.7624 49.5434 75.9617 50.3451 75.9617 51.2638C75.9617 52.1824 75.7624 52.9798 75.3637 53.6558C74.9737 54.3318 74.4147 54.8518 73.6867 55.2158C72.9674 55.5711 72.1267 55.7488 71.1647 55.7488H68.2137V46.7138H71.1647ZM71.1647 54.5398C72.222 54.5398 73.0324 54.2538 73.5957 53.6818C74.159 53.1098 74.4407 52.3038 74.4407 51.2638C74.4407 50.2151 74.159 49.3961 73.5957 48.8068C73.0324 48.2174 72.222 47.9228 71.1647 47.9228H69.6957V54.5398H71.1647ZM80.5375 55.8658C79.8615 55.8658 79.2505 55.7141 78.7045 55.4108C78.1585 55.0988 77.7295 54.6654 77.4175 54.1108C77.1055 53.5474 76.9495 52.8974 76.9495 52.1608C76.9495 51.4328 77.1098 50.7871 77.4305 50.2238C77.7511 49.6604 78.1888 49.2271 78.7435 48.9238C79.2981 48.6204 79.9178 48.4688 80.6025 48.4688C81.2871 48.4688 81.9068 48.6204 82.4615 48.9238C83.0161 49.2271 83.4538 49.6604 83.7745 50.2238C84.0951 50.7871 84.2555 51.4328 84.2555 52.1608C84.2555 52.8888 84.0908 53.5344 83.7615 54.0978C83.4321 54.6611 82.9815 55.0988 82.4095 55.4108C81.8461 55.7141 81.2221 55.8658 80.5375 55.8658ZM80.5375 54.5788C80.9188 54.5788 81.2741 54.4878 81.6035 54.3058C81.9415 54.1238 82.2145 53.8508 82.4225 53.4868C82.6305 53.1228 82.7345 52.6808 82.7345 52.1608C82.7345 51.6408 82.6348 51.2031 82.4355 50.8478C82.2361 50.4838 81.9718 50.2108 81.6425 50.0288C81.3131 49.8468 80.9578 49.7558 80.5765 49.7558C80.1951 49.7558 79.8398 49.8468 79.5105 50.0288C79.1898 50.2108 78.9341 50.4838 78.7435 50.8478C78.5528 51.2031 78.4575 51.6408 78.4575 52.1608C78.4575 52.9321 78.6525 53.5301 79.0425 53.9548C79.4411 54.3708 79.9395 54.5788 80.5375 54.5788ZM88.6065 48.4688C89.1612 48.4688 89.6509 48.5814 90.0755 48.8068C90.5089 49.0234 90.8469 49.2964 91.0895 49.6258V48.5858H92.5845V55.8658C92.5845 56.5244 92.4459 57.1094 92.1685 57.6208C91.8912 58.1408 91.4882 58.5481 90.9595 58.8428C90.4395 59.1374 89.8155 59.2848 89.0875 59.2848C88.1169 59.2848 87.3109 59.0551 86.6695 58.5958C86.0282 58.1451 85.6642 57.5298 85.5775 56.7498H87.0465C87.1592 57.1224 87.3975 57.4214 87.7615 57.6468C88.1342 57.8808 88.5762 57.9978 89.0875 57.9978C89.6855 57.9978 90.1665 57.8158 90.5305 57.4518C90.9032 57.0878 91.0895 56.5591 91.0895 55.8658V54.6698C90.8382 55.0078 90.4959 55.2938 90.0625 55.5278C89.6379 55.7531 89.1525 55.8658 88.6065 55.8658C87.9825 55.8658 87.4105 55.7098 86.8905 55.3978C86.3792 55.0771 85.9719 54.6351 85.6685 54.0718C85.3739 53.4998 85.2265 52.8541 85.2265 52.1348C85.2265 51.4154 85.3739 50.7784 85.6685 50.2238C85.9719 49.6691 86.3792 49.2401 86.8905 48.9368C87.4105 48.6248 87.9825 48.4688 88.6065 48.4688ZM91.0895 52.1608C91.0895 51.6668 90.9855 51.2378 90.7775 50.8738C90.5782 50.5098 90.3139 50.2324 89.9845 50.0418C89.6552 49.8511 89.2999 49.7558 88.9185 49.7558C88.5372 49.7558 88.1819 49.8511 87.8525 50.0418C87.5232 50.2238 87.2545 50.4968 87.0465 50.8608C86.8472 51.2161 86.7475 51.6408 86.7475 52.1348C86.7475 52.6288 86.8472 53.0621 87.0465 53.4348C87.2545 53.8074 87.5232 54.0934 87.8525 54.2928C88.1905 54.4834 88.5459 54.5788 88.9185 54.5788C89.2999 54.5788 89.6552 54.4834 89.9845 54.2928C90.3139 54.1021 90.5782 53.8248 90.7775 53.4608C90.9855 53.0881 91.0895 52.6548 91.0895 52.1608ZM102.887 55.7488L99.39 51.7058V55.7488H97.908V46.7138H99.39V50.8348L102.9 46.7138H104.759L100.833 51.2378L104.824 55.7488H102.887ZM112.7 51.9918C112.7 52.2604 112.682 52.5031 112.648 52.7198H107.175C107.218 53.2918 107.43 53.7511 107.812 54.0978C108.193 54.4444 108.661 54.6178 109.216 54.6178C110.013 54.6178 110.576 54.2841 110.906 53.6168H112.505C112.288 54.2754 111.894 54.8171 111.322 55.2418C110.758 55.6578 110.056 55.8658 109.216 55.8658C108.531 55.8658 107.916 55.7141 107.37 55.4108C106.832 55.0988 106.408 54.6654 106.096 54.1108C105.792 53.5474 105.641 52.8974 105.641 52.1608C105.641 51.4241 105.788 50.7784 106.083 50.2238C106.386 49.6604 106.806 49.2271 107.344 48.9238C107.89 48.6204 108.514 48.4688 109.216 48.4688C109.892 48.4688 110.494 48.6161 111.023 48.9108C111.551 49.2054 111.963 49.6214 112.258 50.1588C112.552 50.6874 112.7 51.2984 112.7 51.9918ZM111.153 51.5238C111.144 50.9778 110.949 50.5401 110.568 50.2108C110.186 49.8814 109.714 49.7168 109.151 49.7168C108.639 49.7168 108.202 49.8814 107.838 50.2108C107.474 50.5314 107.257 50.9691 107.188 51.5238H111.153ZM117.772 48.4688C118.335 48.4688 118.838 48.5858 119.28 48.8198C119.731 49.0538 120.082 49.4004 120.333 49.8598C120.584 50.3191 120.71 50.8738 120.71 51.5238V55.7488H119.241V51.7448C119.241 51.1034 119.081 50.6138 118.76 50.2758C118.439 49.9291 118.002 49.7558 117.447 49.7558C116.892 49.7558 116.45 49.9291 116.121 50.2758C115.8 50.6138 115.64 51.1034 115.64 51.7448V55.7488H114.158V48.5858H115.64V49.4048C115.883 49.1101 116.19 48.8804 116.563 48.7158C116.944 48.5511 117.347 48.4688 117.772 48.4688ZM126.214 48.4688C126.778 48.4688 127.28 48.5858 127.722 48.8198C128.173 49.0538 128.524 49.4004 128.775 49.8598C129.027 50.3191 129.152 50.8738 129.152 51.5238V55.7488H127.683V51.7448C127.683 51.1034 127.523 50.6138 127.202 50.2758C126.882 49.9291 126.444 49.7558 125.889 49.7558C125.335 49.7558 124.893 49.9291 124.563 50.2758C124.243 50.6138 124.082 51.1034 124.082 51.7448V55.7488H122.6V48.5858H124.082V49.4048C124.325 49.1101 124.633 48.8804 125.005 48.7158C125.387 48.5511 125.79 48.4688 126.214 48.4688ZM137.608 51.9918C137.608 52.2604 137.59 52.5031 137.556 52.7198H132.083C132.126 53.2918 132.338 53.7511 132.72 54.0978C133.101 54.4444 133.569 54.6178 134.124 54.6178C134.921 54.6178 135.484 54.2841 135.814 53.6168H137.413C137.196 54.2754 136.802 54.8171 136.23 55.2418C135.666 55.6578 134.964 55.8658 134.124 55.8658C133.439 55.8658 132.824 55.7141 132.278 55.4108C131.74 55.0988 131.316 54.6654 131.004 54.1108C130.7 53.5474 130.549 52.8974 130.549 52.1608C130.549 51.4241 130.696 50.7784 130.991 50.2238C131.294 49.6604 131.714 49.2271 132.252 48.9238C132.798 48.6204 133.422 48.4688 134.124 48.4688C134.8 48.4688 135.402 48.6161 135.931 48.9108C136.459 49.2054 136.871 49.6214 137.166 50.1588C137.46 50.6874 137.608 51.2984 137.608 51.9918ZM136.061 51.5238C136.052 50.9778 135.857 50.5401 135.476 50.2108C135.094 49.8814 134.622 49.7168 134.059 49.7168C133.547 49.7168 133.11 49.8814 132.746 50.2108C132.382 50.5314 132.165 50.9691 132.096 51.5238H136.061ZM140.548 46.1288V55.7488H139.066V46.1288H140.548ZM145.377 51.2118C145.377 50.3278 145.581 49.5348 145.988 48.8328C146.404 48.1308 146.963 47.5848 147.665 47.1948C148.376 46.7961 149.151 46.5968 149.992 46.5968C150.954 46.5968 151.808 46.8351 152.553 47.3118C153.307 47.7798 153.853 48.4471 154.191 49.3138H152.41C152.176 48.8371 151.851 48.4818 151.435 48.2478C151.019 48.0138 150.538 47.8968 149.992 47.8968C149.394 47.8968 148.861 48.0311 148.393 48.2998C147.925 48.5684 147.557 48.9541 147.288 49.4568C147.028 49.9594 146.898 50.5444 146.898 51.2118C146.898 51.8791 147.028 52.4641 147.288 52.9668C147.557 53.4694 147.925 53.8594 148.393 54.1368C148.861 54.4054 149.394 54.5398 149.992 54.5398C150.538 54.5398 151.019 54.4228 151.435 54.1888C151.851 53.9548 152.176 53.5994 152.41 53.1228H154.191C153.853 53.9894 153.307 54.6568 152.553 55.1248C151.808 55.5928 150.954 55.8268 149.992 55.8268C149.143 55.8268 148.367 55.6318 147.665 55.2418C146.963 54.8431 146.404 54.2928 145.988 53.5908C145.581 52.8888 145.377 52.0958 145.377 51.2118ZM157.408 46.1288V55.7488H155.926V46.1288H157.408ZM165.84 48.5858V55.7488H164.358V54.9038C164.124 55.1984 163.817 55.4324 163.435 55.6058C163.063 55.7704 162.664 55.8528 162.239 55.8528C161.676 55.8528 161.169 55.7358 160.718 55.5018C160.276 55.2678 159.925 54.9211 159.665 54.4618C159.414 54.0024 159.288 53.4478 159.288 52.7978V48.5858H160.757V52.5768C160.757 53.2181 160.918 53.7121 161.238 54.0588C161.559 54.3968 161.997 54.5658 162.551 54.5658C163.106 54.5658 163.544 54.3968 163.864 54.0588C164.194 53.7121 164.358 53.2181 164.358 52.5768V48.5858H165.84ZM169.278 49.6518C169.529 49.3051 169.871 49.0234 170.305 48.8068C170.747 48.5814 171.236 48.4688 171.774 48.4688C172.406 48.4688 172.978 48.6204 173.49 48.9238C174.001 49.2271 174.404 49.6604 174.699 50.2238C174.993 50.7784 175.141 51.4154 175.141 52.1348C175.141 52.8541 174.993 53.4998 174.699 54.0718C174.404 54.6351 173.997 55.0771 173.477 55.3978C172.965 55.7098 172.398 55.8658 171.774 55.8658C171.219 55.8658 170.725 55.7574 170.292 55.5408C169.867 55.3241 169.529 55.0468 169.278 54.7088V55.7488H167.796V46.1288H169.278V49.6518ZM173.633 52.1348C173.633 51.6408 173.529 51.2161 173.321 50.8608C173.121 50.4968 172.853 50.2238 172.515 50.0418C172.185 49.8511 171.83 49.7558 171.449 49.7558C171.076 49.7558 170.721 49.8511 170.383 50.0418C170.053 50.2324 169.785 50.5098 169.577 50.8738C169.377 51.2378 169.278 51.6668 169.278 52.1608C169.278 52.6548 169.377 53.0881 169.577 53.4608C169.785 53.8248 170.053 54.1021 170.383 54.2928C170.721 54.4834 171.076 54.5788 171.449 54.5788C171.83 54.5788 172.185 54.4834 172.515 54.2928C172.853 54.0934 173.121 53.8074 173.321 53.4348C173.529 53.0621 173.633 52.6288 173.633 52.1348Z" fill="#1C2335"/>
<defs>
<clipPath id="clip0">
<rect width="176" height="33.8128" fill="white"/>
</clipPath>
</defs>
</svg>
